<svg width="92" height="16" viewBox="0 0 92 16" fill="none" xmlns="http://www.w3.org/2000/svg">
<path d="M0 3.61977L0.574162 0.212928H14.0216L13.4475 3.61977H8.79374L6.79928 15.7871H2.65927L4.65373 3.61977H0Z" fill="black"/>
<path d="M20.2638 0.212928L17.6952 15.7871H13.4948L16.0634 0.212928H20.2638Z" fill="black"/>
<path d="M35.7171 6.05323H31.5167C31.5469 5.69328 31.5267 5.36882 31.4562 5.07985C31.3857 4.79087 31.2648 4.54246 31.0936 4.3346C30.9223 4.12167 30.6982 3.95944 30.4212 3.84791C30.1442 3.73638 29.8143 3.68061 29.4315 3.68061C28.6962 3.68061 28.039 3.86565 27.4598 4.23574C26.8806 4.60076 26.3996 5.12548 26.0168 5.80989C25.634 6.48923 25.3621 7.30038 25.2009 8.24335C25.0599 9.15589 25.0548 9.91382 25.1858 10.5171C25.3218 11.1204 25.5862 11.5716 25.979 11.8707C26.3769 12.1698 26.8931 12.3194 27.5277 12.3194C27.9508 12.3194 28.3386 12.2687 28.6912 12.1673C29.0488 12.0659 29.3661 11.9214 29.6431 11.7338C29.9251 11.5412 30.1644 11.3131 30.3608 11.0494C30.5622 10.7807 30.7159 10.4842 30.8216 10.1597H35.0523C34.8911 10.8188 34.604 11.493 34.191 12.1825C33.778 12.8669 33.2442 13.4981 32.5894 14.076C31.9347 14.6489 31.1641 15.1128 30.2777 15.4677C29.3913 15.8226 28.394 16 27.286 16C25.8355 16 24.5839 15.6806 23.5313 15.0418C22.4837 14.403 21.7232 13.4702 21.2497 12.2433C20.7813 11.0165 20.6882 9.52091 20.9702 7.75665C21.2523 6.05323 21.8088 4.62611 22.6398 3.47529C23.4708 2.32446 24.4807 1.45754 25.6693 0.874525C26.8579 0.291508 28.1221 0 29.4618 0C30.4741 0 31.3807 0.134347 32.1815 0.403041C32.9873 0.671736 33.6647 1.06464 34.2137 1.58175C34.7677 2.09379 35.1757 2.72497 35.4376 3.47529C35.6995 4.2256 35.7927 5.08492 35.7171 6.05323Z" fill="black"/>
<path d="M36.0363 15.7871L38.6049 0.212928H42.8054L41.7779 6.50951H41.9894L47.6706 0.212928H52.5661L46.2201 7.14829L50.1184 15.7871H45.102L42.624 9.94677L40.9016 11.8023L40.2367 15.7871H36.0363Z" fill="black"/>
<path d="M50.8185 15.7871L53.3872 0.212928H64.538L63.9638 3.61977H57.0134L56.5904 6.29658H62.9666L62.3924 9.70342H56.0162L55.5931 12.3802H62.5133L61.9391 15.7871H50.8185Z" fill="black"/>
<path d="M65.1985 3.61977L65.7726 0.212928H79.2201L78.646 3.61977H73.9922L71.9978 15.7871H67.8578L69.8522 3.61977H65.1985Z" fill="black"/>
<path d="M87.9 5.07985C87.9453 4.57795 87.8245 4.18504 87.5374 3.90114C87.2503 3.61217 86.7668 3.46768 86.0869 3.46768C85.6537 3.46768 85.2911 3.51838 84.999 3.61977C84.7119 3.72117 84.4878 3.86058 84.3266 4.03802C84.1705 4.21546 84.0723 4.42079 84.032 4.65399C83.9866 4.8365 83.9892 5.0038 84.0395 5.15589C84.0949 5.30292 84.1982 5.43726 84.3493 5.55894C84.5054 5.68061 84.7094 5.78961 84.9612 5.88593C85.2181 5.98226 85.5228 6.06844 85.8753 6.14449L87.0841 6.41825C87.9101 6.60076 88.6026 6.84157 89.1617 7.14069C89.7257 7.43473 90.169 7.78454 90.4913 8.19011C90.8136 8.59569 91.0252 9.04943 91.1259 9.55133C91.2317 10.0532 91.2342 10.6008 91.1334 11.1939C90.9622 12.218 90.5668 13.0849 89.9473 13.7947C89.3279 14.5044 88.5195 15.0444 87.5223 15.4144C86.525 15.7845 85.3717 15.9696 84.0622 15.9696C82.7225 15.9696 81.5842 15.7693 80.6474 15.3688C79.7157 14.9632 79.0408 14.3447 78.6228 13.5133C78.2098 12.6768 78.109 11.6096 78.3206 10.3118H82.3095C82.2491 10.7883 82.2994 11.1888 82.4606 11.5133C82.6217 11.8378 82.8811 12.0837 83.2387 12.251C83.5963 12.4183 84.042 12.5019 84.5759 12.5019C85.0292 12.5019 85.417 12.4461 85.7393 12.3346C86.0617 12.2231 86.316 12.0684 86.5024 11.8707C86.6887 11.673 86.802 11.4474 86.8423 11.1939C86.8826 10.9607 86.8423 10.7529 86.7215 10.5703C86.6006 10.3878 86.3815 10.2231 86.0642 10.076C85.7469 9.92902 85.3112 9.79468 84.7572 9.67301L83.2765 9.3384C81.962 9.03422 80.9698 8.53232 80.2999 7.8327C79.6301 7.13308 79.3933 6.1749 79.5898 4.95818C79.7509 3.96451 80.1564 3.09759 80.8061 2.35741C81.4608 1.61217 82.2919 1.03422 83.2992 0.623574C84.3115 0.207858 85.4321 0 86.661 0C87.9101 0 88.9552 0.210393 89.7962 0.631179C90.6424 1.05196 91.2493 1.64259 91.617 2.40304C91.9897 3.1635 92.0904 4.05577 91.9191 5.07985H87.9Z" fill="black"/>
</svg>
